<?xml version="1.0" standalone="no"?>
<!DOCTYPE svg PUBLIC "-//W3C//DTD SVG 20010904//EN"
 "http://www.w3.org/TR/2001/REC-SVG-20010904/DTD/svg10.dtd">
<svg version="1.0" xmlns="http://www.w3.org/2000/svg"
 width="300.000000pt" height="300.000000pt" viewBox="0 0 300.000000 300.000000"
 preserveAspectRatio="xMidYMid meet">
<metadata>
Created by potrace 1.11, written by Peter Selinger 2001-2013
</metadata>
<g transform="translate(0.000000,300.000000) scale(0.100000,-0.100000)"
fill="#000000" stroke="none">
<path d="M373 2039 c-6 -8 -14 -33 -18 -57 -4 -24 -18 -71 -31 -105 -29 -73
-30 -87 -6 -87 18 0 42 23 62 59 23 44 80 61 203 61 94 0 117 -3 128 -17 22
-25 26 -810 5 -851 -16 -30 -69 -62 -104 -62 -11 0 -30 -9 -43 -19 -20 -16
-21 -21 -9 -25 9 -4 119 -5 245 -4 192 3 230 5 230 17 0 9 -19 20 -49 27 -57
15 -95 40 -114 75 -17 34 -16 795 2 830 11 23 16 24 141 27 153 4 198 -6 220
-48 8 -16 15 -38 15 -48 0 -11 7 -25 16 -33 22 -18 34 0 39 61 0 14 5 41 9 60
24 113 14 128 -57 92 l-51 -27 -374 0 -374 0 -37 44 c-29 34 -39 40 -48 30z"/>
<path d="M1364 1965 c-9 -22 2 -32 43 -40 42 -8 89 -30 112 -52 11 -11 15 -38
15 -97 0 -80 -11 -264 -19 -321 -3 -16 -7 -52 -10 -80 -3 -27 -10 -84 -15
-125 -5 -41 -12 -97 -16 -125 -9 -74 -38 -131 -77 -145 -68 -25 -77 -30 -77
-40 0 -12 376 -14 384 -2 9 15 -9 30 -50 41 -40 11 -72 37 -93 78 -10 20 -8
177 3 298 9 96 17 165 20 182 2 10 7 47 11 83 4 36 9 67 11 69 2 3 10 -3 17
-13 17 -24 173 -411 241 -601 32 -89 60 -150 67 -150 15 0 12 -5 229 439 89
180 164 325 168 321 8 -8 9 -18 18 -245 12 -269 10 -395 -5 -424 -9 -16 -28
-28 -55 -35 -55 -14 -74 -27 -60 -41 7 -7 83 -9 225 -8 178 3 214 5 214 17 0
9 -19 19 -48 27 -54 14 -92 36 -106 62 -5 10 -12 62 -16 117 -3 55 -8 123 -10
150 -17 201 -26 532 -15 561 6 14 32 30 77 49 133 53 122 65 -57 65 l-140 0
-6 -27 c-19 -89 -43 -152 -119 -310 -47 -96 -85 -177 -85 -178 0 -12 -141
-294 -149 -300 -13 -7 -23 15 -106 230 -32 83 -77 200 -100 260 -24 61 -56
148 -71 195 -15 47 -31 95 -35 108 -8 21 -12 22 -159 22 -122 0 -152 -3 -156
-15z"/>
</g>
</svg>
